<svg xmlns="http://www.w3.org/2000/svg" viewBox="0 0 16 16" fill="#ffffff" id="T-Shirt--Streamline-Phosphor" height="16" width="16">
  <desc>
    T Shirt Streamline Icon: https://streamlinehq.com
  </desc>
  <path d="M15.474375 3.82625 12.239375 2.0625a0.5 0.5 0 0 0 -0.239375 -0.0625h-2a0.5 0.5 0 0 0 -0.5 0.5 1.5 1.5 0 0 1 -3 0 0.5 0.5 0 0 0 -0.5 -0.5H4a0.5 0.5 0 0 0 -0.24 0.0625L0.525625 3.82625a0.985 0.985 0 0 0 -0.411875 1.32875l1.204375 2.300625A1.023125 1.023125 0 0 0 2.229375 8H3.5v5a1 1 0 0 0 1 1h7a1 1 0 0 0 1 -1v-5h1.27125a1.023125 1.023125 0 0 0 0.91125 -0.544375l1.204375 -2.300625a0.985 0.985 0 0 0 -0.4125 -1.32875ZM2.229375 7a0.03875 0.03875 0 0 1 -0.025625 -0.008125L1.005625 4.70375 3.5 3.3425V7ZM11.5 13H4.5V3h1.05a2.5 2.5 0 0 0 4.89875 0H11.5Zm2.296875 -6.00875a0.034375 0.034375 0 0 1 -0.025625 0.00875H12.5V3.3425l2.495 1.36125Z" stroke-width="0.0625"></path>
</svg>