<svg xmlns="http://www.w3.org/2000/svg" viewBox="0 0 16 16" fill="#ffffff" id="Music-Notes--Streamline-Phosphor" height="16" width="16">
  <desc>
    Music Notes Streamline Icon: https://streamlinehq.com
  </desc>
  <path d="M15.03519375 0.28264375c-0.14094375 -0.109825 -0.3246125 -0.14865 -0.49794375 -0.10525L5.24609375 2.50018125c-0.25848125 0.06460625 -0.4398375 0.2968375 -0.439875 0.563275v7.9903875c-1.6726 -1.11755 -3.92775625 -0.00538125 -4.0592875 2.0019125 -0.13153125 2.0072875 1.95921875 3.404225 3.76335 2.5144875 0.8926375 -0.44021875 1.4577 -1.3493 1.45733125 -2.34459375v-6.22434375l8.12975625 -2.0324375v3.7621875c-1.67259375 -1.11755 -3.92775625 -0.00538125 -4.0592875 2.0019125 -0.131525 2.0072875 1.95921875 3.404225 3.76335 2.5144875 0.89264375 -0.44021875 1.4577 -1.3493 1.45733125 -2.34459375V0.74066875c0.00004375 -0.17896875 -0.08244375 -0.3479625 -0.22356875 -0.458025ZM3.354475 14.67739375c-1.11755 0 -1.81601875 -1.20978125 -1.25724375 -2.1776125 0.558775 -0.96783125 1.9557125 -0.96783125 2.51449375 0 0.1274125 0.22069375 0.19449375 0.4710375 0.19449375 0.72586875 0 0.80175 -0.64999375 1.45170625 -1.45174375 1.45174375ZM5.9676125 5.80361875V3.517125l8.12975625 -2.0324375v2.28649375ZM12.645625 12.35460625c-1.11755 0.00005 -1.81600625 -1.20970625 -1.257275 -2.17755625 0.55873125 -0.96785625 1.955675 -0.96791875 2.51449375 -0.0001125 0.1274375 0.22070625 0.194525 0.47106875 0.194525 0.725925 0 0.80175 -0.64999375 1.45170625 -1.45174375 1.45174375Z" stroke-width="0.0625"></path>
</svg>