<svg xmlns="http://www.w3.org/2000/svg" viewBox="0 0 16 16" fill="#ffffff" id="Book-Open--Streamline-Phosphor" height="16" width="16">
  <desc>
    Book Open Streamline Icon: https://streamlinehq.com
  </desc>
  <path d="M15.28 1.28h-5.04c-0.88131875 0 -1.71120625 0.41494375 -2.24 1.12 -0.52879375 -0.70505625 -1.35868125 -1.12 -2.24 -1.12H0.72c-0.30928125 0 -0.56 0.25071875 -0.56 0.56v10.08c0 0.3092875 0.2507125 0.5600125 0.56 0.56h5.04c0.9278375 0 1.68 0.7521625 1.68 1.68 0 0.4310875 0.46666875 0.70051875 0.84 0.484975 0.1732625 -0.1000375 0.28 -0.28490625 0.28 -0.484975 0 -0.92786875 0.75213125 -1.68004375 1.68 -1.68h5.04c0.30928125 0 0.56 -0.25071875 0.56 -0.56V1.84c0 -0.30926875 -0.25073125 -0.5599875 -0.56 -0.56ZM5.76 11.36H1.28V2.4h4.48c0.92780625 0.00004375 1.68 0.75219375 1.68 1.68v7.84c-0.48421875 -0.36436875 -1.07400625 -0.5609625 -1.68 -0.56Zm8.96 0h-4.48c-0.60599375 -0.0009625 -1.19578125 0.19563125 -1.68 0.56V4.08c0 -0.92786875 0.75213125 -1.68004375 1.68 -1.68h4.48Z" stroke-width="0.0625"></path>
</svg>