<svg xmlns="http://www.w3.org/2000/svg" viewBox="0 0 16 16" fill="#ffffff" id="Piano-Keys--Streamline-Phosphor" height="16" width="16">
  <desc>
    Piano Keys Streamline Icon: https://streamlinehq.com
  </desc>
  <path d="M14.53333125 0.16H1.46666875C0.7450125 0.16 0.16 0.7450125 0.16 1.46666875v13.0666625c0 0.721675 0.58499375 1.3067 1.30666875 1.30666875h13.0666625c0.721675 0.00003125 1.30666875 -0.58499375 1.30666875 -1.30666875V1.46666875c0 -0.72165625 -0.5850125 -1.30666875 -1.30666875 -1.30666875ZM4.08 1.46666875h1.96v7.1866625H4.08ZM6.69333125 9.96c0.36081875 -0.00001875 0.6533375 -0.29251875 0.6533375 -0.65333125v-7.84h1.3066625v7.84c0 0.3608375 0.2925 0.65335 0.6533375 0.65333125H9.96v4.57333125H6.04V9.96Zm3.26666875 -1.30666875V1.46666875h1.96v7.1866625ZM1.46666875 1.46666875h1.3066625v7.84c0 0.3608375 0.2925 0.65335 0.6533375 0.65333125h1.3066625v4.57333125H1.46666875Zm13.0666625 13.0666625h-3.2666625V9.96h1.3066625c0.36081875 -0.00001875 0.6533375 -0.29251875 0.6533375 -0.65333125v-7.84h1.3066625v13.0666625Z" stroke-width="0.0625"></path>
</svg>