<?xml version="1.0" encoding="UTF-8"?>
<svg width="180px" height="180px" viewBox="0 0 180 180" version="1.1" xmlns="http://www.w3.org/2000/svg" xmlns:xlink="http://www.w3.org/1999/xlink">
    <title>44-logo-light</title>
    <g id="44-logo-light" stroke="none" stroke-width="1" fill="none" fill-rule="evenodd">
        <g id="Group-Copy" transform="translate(5.000000, 30.000000)" fill="#FFFFFF" fill-rule="nonzero">
            <path d="M134.531233,119 C139.709511,115.726916 145.69931,110.154879 152.50063,102.28389 C151.650465,96.8287492 151.109451,92.1529142 150.877588,88.2563851 C154.741974,85.7626064 159.263306,80.6971185 164.441584,73.0599214 C169.542574,65.656516 171.667987,61.370334 170.817822,60.2013752 C170.740534,60.1234447 170.663246,60.0844794 170.585959,60.0844794 C170.740534,60.0844794 168.653765,61.6820563 164.325653,64.8772102 C159.99754,68.0723641 155.476208,69.9426981 150.761656,70.4882122 C150.607081,69.6309758 150.529793,68.5009823 150.529793,67.0982318 C150.529793,63.2796333 151.321992,54.7851997 152.906391,41.6149312 C154.490789,28.4446627 155.282988,19.6774722 155.282988,15.3133595 C155.282988,10.9492469 154.432823,7.2475442 152.732493,4.20825147 C151.109451,1.40275049 149.293189,0 147.283708,0 C142.337294,0 132.058026,12.5468238 116.445905,37.6404715 C95.9646565,70.4492469 83.4826883,89.6201703 79,95.1532417 C82.5552355,94.7635887 87.1152115,94.5687623 92.679928,94.5687623 C109.219502,94.5687623 121.662826,95.3870334 130.009901,97.0235756 C131.787519,105.67387 133.294629,112.999345 134.531233,119 Z M131.053285,71.540275 C120.774017,71.2285527 113.354395,70.0206287 108.794419,67.9165029 C123.015362,42.5890635 132.405821,29.9253438 136.965797,29.9253438 C137.429523,32.6529142 136.811221,39.6277014 135.110891,50.8497053 C133.487849,61.6820563 132.135314,68.5789129 131.053285,71.540275 Z" id="4"></path>
            <path d="M55.5312331,119 C60.709511,115.726916 66.6993099,110.154879 73.5006301,102.28389 C72.650465,96.8287492 72.1094509,92.1529142 71.8775878,88.2563851 C75.7419742,85.7626064 80.2633063,80.6971185 85.4415842,73.0599214 C90.5425743,65.656516 92.6679868,61.370334 91.8178218,60.2013752 C91.7405341,60.1234447 91.6632463,60.0844794 91.5859586,60.0844794 C91.7405341,60.0844794 89.6537654,61.6820563 85.3256526,64.8772102 C80.9975398,68.0723641 76.4762076,69.9426981 71.7616562,70.4882122 C71.6070807,69.6309758 71.529793,68.5009823 71.529793,67.0982318 C71.529793,63.2796333 72.3219922,54.7851997 73.9063906,41.6149312 C75.4907891,28.4446627 76.2829883,19.6774722 76.2829883,15.3133595 C76.2829883,10.9492469 75.4328233,7.2475442 73.7324932,4.20825147 C72.1094509,1.40275049 70.2931893,0 68.2837084,0 C63.3372937,0 53.0580258,12.5468238 37.4459046,37.6404715 C16.9646565,70.4492469 4.48268827,89.6201703 0,95.1532417 C3.55523552,94.7635887 8.11521152,94.5687623 13.679928,94.5687623 C30.219502,94.5687623 42.6628263,95.3870334 51.009901,97.0235756 C52.7875188,105.67387 54.2946295,112.999345 55.5312331,119 Z M52.0532853,71.540275 C41.7740174,71.2285527 34.3543954,70.0206287 29.7944194,67.9165029 C44.0153615,42.5890635 53.4058206,29.9253438 57.9657966,29.9253438 C58.429523,32.6529142 57.8112211,39.6277014 56.1108911,50.8497053 C54.4878488,61.6820563 53.1353135,68.5789129 52.0532853,71.540275 Z" id="4-copy"></path>
        </g>
    </g>
</svg>