<?xml version="1.0" encoding="UTF-8"?>
<svg width="100px" height="100px" viewBox="0 0 100 100" version="1.1" xmlns="http://www.w3.org/2000/svg" xmlns:xlink="http://www.w3.org/1999/xlink">
    <title>Artboard</title>
    <g id="Artboard" stroke="none" stroke-width="1" fill="none" fill-rule="evenodd">
        <g id="Group-Copy" transform="translate(0.000000, 16.000000)" fill="#93FF00" fill-rule="nonzero">
            <path d="M78.5944194,69 C81.6338434,67.1021611 85.149595,63.8713163 89.1416742,59.3074656 C88.6426643,56.1444008 88.3251125,53.4332024 88.1890189,51.1738703 C90.4572457,49.7278978 93.1110711,46.7907662 96.150495,42.3624754 C99.1445545,38.0697446 100.392079,35.5844794 99.8930693,34.9066798 C99.8477048,34.8614931 99.8023402,34.8388998 99.7569757,34.8388998 C99.8477048,34.8388998 98.6228623,35.7652259 96.0824482,37.6178782 C93.5420342,39.4705305 90.8882088,40.5550098 88.1209721,40.8713163 C88.030243,40.3742633 87.9848785,39.719057 87.9848785,38.9056974 C87.9848785,36.6915521 88.449865,31.7662083 89.379838,24.129666 C90.309811,16.4931238 90.7747975,11.4096267 90.7747975,8.87917485 C90.7747975,6.34872299 90.2757876,4.20235756 89.2777678,2.44007859 C88.3251125,0.813359528 87.2590459,0 86.079568,0 C83.1762376,0 77.1427543,7.27504912 67.9791179,21.8251473 C55.9575158,40.848723 48.6311431,51.9646365 46,55.172888 C48.0867687,54.9469548 50.7632763,54.8339882 54.029523,54.8339882 C63.7375338,54.8339882 71.0412241,55.3084479 75.9405941,56.2573674 C76.9839784,61.2730845 77.8685869,65.5206287 78.5944194,69 Z M76.5530153,41.481336 C70.519532,41.3005894 66.1645365,40.6001965 63.4880288,39.3801572 C71.8351035,24.694499 77.3468947,17.3516699 80.0234023,17.3516699 C80.2955896,18.9332024 79.9326733,22.9774067 78.9346535,29.4842829 C77.9819982,35.7652259 77.1881188,39.7642436 76.5530153,41.481336 Z" id="4"></path>
            <path d="M32.5944194,69 C35.6338434,67.1021611 39.149595,63.8713163 43.1416742,59.3074656 C42.6426643,56.1444008 42.3251125,53.4332024 42.1890189,51.1738703 C44.4572457,49.7278978 47.1110711,46.7907662 50.150495,42.3624754 C53.1445545,38.0697446 54.3920792,35.5844794 53.8930693,34.9066798 C53.8477048,34.8614931 53.8023402,34.8388998 53.7569757,34.8388998 C53.8477048,34.8388998 52.6228623,35.7652259 50.0824482,37.6178782 C47.5420342,39.4705305 44.8882088,40.5550098 42.1209721,40.8713163 C42.030243,40.3742633 41.9848785,39.719057 41.9848785,38.9056974 C41.9848785,36.6915521 42.449865,31.7662083 43.379838,24.129666 C44.309811,16.4931238 44.7747975,11.4096267 44.7747975,8.87917485 C44.7747975,6.34872299 44.2757876,4.20235756 43.2777678,2.44007859 C42.3251125,0.813359528 41.2590459,0 40.079568,0 C37.1762376,0 31.1427543,7.27504912 21.9791179,21.8251473 C9.95751575,40.848723 2.63114311,51.9646365 0,55.172888 C2.08676868,54.9469548 4.76327633,54.8339882 8.02952295,54.8339882 C17.7375338,54.8339882 25.0412241,55.3084479 29.9405941,56.2573674 C30.9839784,61.2730845 31.8685869,65.5206287 32.5944194,69 Z M30.5530153,41.481336 C24.519532,41.3005894 20.1645365,40.6001965 17.4880288,39.3801572 C25.8351035,24.694499 31.3468947,17.3516699 34.0234023,17.3516699 C34.2955896,18.9332024 33.9326733,22.9774067 32.9346535,29.4842829 C31.9819982,35.7652259 31.1881188,39.7642436 30.5530153,41.481336 Z" id="4-copy"></path>
        </g>
    </g>
</svg>