<?xml version="1.0" encoding="UTF-8"?>
<svg width="1024px" height="1024px" viewBox="0 0 1024 1024" version="1.1" xmlns="http://www.w3.org/2000/svg" xmlns:xlink="http://www.w3.org/1999/xlink">
    <title>Artboard</title>
    <g id="Artboard" stroke="none" stroke-width="1" fill="none" fill-rule="evenodd">
        <rect fill="#000000" x="0" y="0" width="1024" height="1024"></rect>
        <g id="Group-Copy" transform="translate(129.000000, 246.000000)" fill="#93FF00" fill-rule="nonzero">
            <path d="M603.286949,533 C626.532913,518.339882 653.421902,493.382777 683.953915,458.128684 C680.137414,433.695154 677.708731,412.752128 676.667867,395.299607 C694.015602,384.129993 714.312451,361.441716 737.558416,327.234774 C760.457426,294.074984 769.99868,274.87721 766.182178,269.641454 C765.835224,269.292403 765.488269,269.117878 765.141314,269.117878 C765.835224,269.117878 756.467447,276.273412 737.037984,290.584479 C717.608521,304.895547 697.311671,313.272757 676.147435,315.71611 C675.453525,311.876555 675.106571,306.815324 675.106571,300.532417 C675.106571,283.428946 678.662856,245.382449 685.775428,186.392927 C692.887999,127.403405 696.444284,88.1352325 696.444284,68.5884086 C696.444284,49.0415848 692.627783,32.4616896 684.994779,18.848723 C677.708731,6.28290766 669.555296,0 660.534473,0 C638.329373,0 592.184398,56.1971185 522.09955,168.591356 C430.156556,315.541585 374.123372,401.40799 354,426.19057 C369.959916,424.445318 390.430243,423.572692 415.410981,423.572692 C489.659286,423.572692 545.518992,427.237721 582.990099,434.56778 C590.970057,473.312377 597.735674,506.123117 603.286949,533 Z M587.673987,320.428291 C541.529013,319.032089 508.221362,313.621807 487.751035,304.197446 C551.590699,190.756058 593.745695,134.035363 614.216022,134.035363 C616.29775,146.252128 613.522112,177.492141 605.889109,227.755403 C598.60306,276.273412 592.531353,307.164375 587.673987,320.428291 Z" id="4"></path>
            <path d="M249.286949,533 C272.532913,518.339882 299.421902,493.382777 329.953915,458.128684 C326.137414,433.695154 323.708731,412.752128 322.667867,395.299607 C340.015602,384.129993 360.312451,361.441716 383.558416,327.234774 C406.457426,294.074984 415.99868,274.87721 412.182178,269.641454 C411.835224,269.292403 411.488269,269.117878 411.141314,269.117878 C411.835224,269.117878 402.467447,276.273412 383.037984,290.584479 C363.608521,304.895547 343.311671,313.272757 322.147435,315.71611 C321.453525,311.876555 321.106571,306.815324 321.106571,300.532417 C321.106571,283.428946 324.662856,245.382449 331.775428,186.392927 C338.887999,127.403405 342.444284,88.1352325 342.444284,68.5884086 C342.444284,49.0415848 338.627783,32.4616896 330.994779,18.848723 C323.708731,6.28290766 315.555296,0 306.534473,0 C284.329373,0 238.184398,56.1971185 168.09955,168.591356 C76.1565557,315.541585 20.1233723,401.40799 0,426.19057 C15.959916,424.445318 36.430243,423.572692 61.4109811,423.572692 C135.659286,423.572692 191.518992,427.237721 228.990099,434.56778 C236.970057,473.312377 243.735674,506.123117 249.286949,533 Z M233.673987,320.428291 C187.529013,319.032089 154.221362,313.621807 133.751035,304.197446 C197.590699,190.756058 239.745695,134.035363 260.216022,134.035363 C262.29775,146.252128 259.522112,177.492141 251.889109,227.755403 C244.60306,276.273412 238.531353,307.164375 233.673987,320.428291 Z" id="4-copy"></path>
        </g>
    </g>
</svg>