<?xml version="1.0" encoding="UTF-8"?>
<svg width="22px" height="22px" viewBox="0 0 22 22" version="1.1" xmlns="http://www.w3.org/2000/svg" xmlns:xlink="http://www.w3.org/1999/xlink">
    <title>COLLECTION_filled</title>
    <g id="COLLECTION_filled" stroke="none" stroke-width="1" fill="none" fill-rule="evenodd">
        <g id="Cards-Three--Streamline-Phosphor-Copy" fill="#000000" fill-rule="nonzero">
            <path d="M20.1666637,7.33333372 L1.83333626,7.33333372 C0.820782047,7.33333372 0,8.15410671 0,9.16666057 L0,20.1666568 C0,21.1792106 0.820782047,21.9999924 1.83333626,21.9999924 L20.1666637,21.9999924 C21.179218,21.9999924 22,21.1792106 22,20.1666568 L22,9.16666057 C22,8.15410671 21.179218,7.33333372 20.1666637,7.33333372 Z M1.83333626,4.58333467 C1.83333626,4.07705774 2.2437229,3.66666247 2.75,3.66666247 L19.25,3.66666247 C19.9556521,3.66669755 20.3966869,4.43060274 20.0438345,5.04169708 C19.8800797,5.3252995 19.5774745,5.4999981 19.25,5.4999981 L2.75,5.4999981 C2.2437229,5.5000244 1.83333626,5.0896116 1.83333626,4.58333467 Z M3.66666374,0.916663426 C3.66666374,0.410386497 4.07705915,0 4.58333626,0 L17.4166637,0 C18.1223158,3.50765185e-05 18.5633594,0.763940265 18.210507,1.3750346 C18.0467522,1.65863702 17.744147,1.83333562 17.4166637,1.83333562 L4.58333626,1.83333562 C4.07707669,1.83333562 3.66666374,1.42293159 3.66666374,0.916672195 L3.66666374,0.916663426 Z" id="Shape"></path>
        </g>
    </g>
</svg>