<?xml version="1.0" encoding="UTF-8"?>
<svg width="22px" height="22px" viewBox="0 0 22 22" version="1.1" xmlns="http://www.w3.org/2000/svg" xmlns:xlink="http://www.w3.org/1999/xlink">
    <title>COLLECTION</title>
    <g id="COLLECTION" stroke="none" stroke-width="1" fill="none" fill-rule="evenodd">
        <g id="Cards-Three--Streamline-Phosphor" transform="translate(0.000000, 1.000000)" fill="#000000" fill-rule="nonzero">
            <path d="M20.1666637,6.66666932 L1.83333626,6.66666932 C0.820782047,6.66666932 0,7.41282685 0,8.33333068 L0,18.3333307 C0,19.2538345 0.820782047,20 1.83333626,20 L20.1666637,20 C21.179218,20 22,19.2538345 22,18.3333307 L22,8.33333068 C22,7.41282685 21.179218,6.66666932 20.1666637,6.66666932 Z M20.1666637,18.3333307 L1.83333626,18.3333307 L1.83333626,8.33333068 L20.1666637,8.33333068 L20.1666637,18.3333307 Z M1.83333626,4.16666932 C1.83333626,3.70641741 2.2437229,3.33333068 2.75,3.33333068 L19.25,3.33333068 C19.9556521,3.33336256 20.3966869,4.02782207 20.0438345,4.58336256 C19.8800797,4.84118304 19.5774745,5 19.25,5 L2.75,5 C2.2437229,5.00002392 1.83333626,4.62692124 1.83333626,4.16666932 Z M3.66666374,0.833330676 C3.66666374,0.373078763 4.07705915,0 4.58333626,0 L17.4166637,0 C18.1223158,3.18877551e-05 18.5633594,0.69449139 18.210507,1.25003189 C18.0467522,1.50785236 17.744147,1.66666932 17.4166637,1.66666932 L4.58333626,1.66666932 C4.07707669,1.66666932 3.66666374,1.29357462 3.66666374,0.833338648 L3.66666374,0.833330676 Z" id="Shape"></path>
        </g>
    </g>
</svg>