<?xml version="1.0" encoding="UTF-8"?>
<svg width="22px" height="22px" viewBox="0 0 22 22" version="1.1" xmlns="http://www.w3.org/2000/svg" xmlns:xlink="http://www.w3.org/1999/xlink">
    <title>COMMUNITY</title>
    <g id="COMMUNITY" stroke="none" stroke-width="1" fill="none" fill-rule="evenodd">
        <g id="Chats--Streamline-Phosphor" transform="translate(0.000000, 1.000000)" fill="#000000" fill-rule="nonzero">
            <path d="M20.3076889,4.80000066 L16.9230756,4.80000066 L16.9230756,1.60000298 C16.9230756,0.716318148 16.1654313,0 15.2307733,0 L1.69231107,0 C0.757644292,0 0,0.716318148 0,1.60000298 L0,14.400002 C0.00203443878,15.0158355 0.708423151,15.3986556 1.2715067,15.0890682 C1.30771445,15.069162 1.34230867,15.0467436 1.375,15.0219955 L5.07692443,12.200001 L5.07692443,15.1999993 C5.07692443,16.0836261 5.83462133,16.7999609 6.76922672,16.8000023 L16.6681744,16.8000023 L20.625,19.8219962 C20.7747242,19.9365006 20.9612787,19.999287 21.1538489,20 C21.6211472,20 22,19.6418119 22,19.2000027 L22,6.40000365 C22,5.51637685 21.2422943,4.80004212 20.3076889,4.80000066 Z M4.50047672,10.5780025 L1.69231107,12.7250003 L1.69231107,1.60000298 L15.2307645,1.60000298 L15.2307645,10.3999987 L5.0325,10.3999987 C4.83884247,10.4000235 4.6510515,10.4628513 4.50047672,10.5780025 Z M20.3076889,17.525001 L17.4995233,15.3780031 C17.3497991,15.2634987 17.1632446,15.2007041 16.9706744,15.1999993 L6.76922672,15.1999993 L6.76922672,12.0000017 L15.2307733,12.0000017 C16.1653787,11.9999602 16.9230756,11.2836255 16.9230756,10.4000036 L16.9230756,6.40000365 L20.3076889,6.40000365 L20.3076889,17.525001 Z" id="Shape"></path>
        </g>
    </g>
</svg>