<?xml version="1.0" encoding="UTF-8"?>
<svg width="22px" height="22px" viewBox="0 0 22 22" version="1.1" xmlns="http://www.w3.org/2000/svg" xmlns:xlink="http://www.w3.org/1999/xlink">
    <title>COMMUNITY_filled</title>
    <g id="COMMUNITY_filled" stroke="none" stroke-width="1" fill="none" fill-rule="evenodd">
        <g id="Chat-Teardrop-Text--Streamline-Phosphor-Copy-2" transform="translate(0.000000, 0.000000)" fill="#000000" fill-rule="nonzero">
            <path d="M16.5,1.48902232 C19.9034144,3.45251866 22,7.08120626 22,11.0081989 C21.9933355,17.0760429 17.0723701,21.9933404 11,22 L1.76,22 C0.787976722,22 0,21.2126106 0,20.2413118 L0,11.0081989 C0,2.54670277 9.16666374,-2.74172576 16.5,1.48902232 Z M14.52,12.3272151 L7.04,12.3272151 C6.36257573,12.3272151 5.93918447,13.0600047 6.27790099,13.6462312 C6.43509646,13.9183011 6.72560906,14.0859032 7.04,14.0859032 L14.52,14.0859032 C15.1974243,14.0859032 15.6208155,13.3531136 15.282099,12.7668871 C15.1249035,12.4948172 14.8343909,12.3272151 14.52,12.3272151 Z M14.52,8.80983873 L7.04,8.80983873 C6.72560906,8.80983873 6.43509646,8.97744091 6.27790099,9.24951077 C5.93918447,9.83573724 6.36257573,10.5685269 7.04,10.5685269 L7.04,10.5685269 L14.52,10.5685269 C15.0059941,10.5685269 15.4,10.1748147 15.4,9.68918281 C15.4,9.20355095 15.0059941,8.80983873 14.52,8.80983873 L14.52,8.80983873 Z" id="Shape"></path>
        </g>
    </g>
</svg>