<?xml version="1.0" encoding="UTF-8"?>
<svg width="22px" height="22px" viewBox="0 0 22 22" version="1.1" xmlns="http://www.w3.org/2000/svg" xmlns:xlink="http://www.w3.org/1999/xlink">
    <title>DASHBOARD</title>
    <g id="DASHBOARD" stroke="none" stroke-width="1" fill="none" fill-rule="evenodd">
        <g id="Chart-Pie-Slice--Streamline-Phosphor" transform="translate(1.000000, 1.000000)" fill="#000000" fill-rule="nonzero">
            <path d="M7.30445476,8.88749768 C7.54236798,8.75005286 7.68883681,8.49603507 7.68883681,8.2211534 L7.68883681,1.29808021 C7.6858808,0.769276418 7.16287807,0.401085347 6.66445545,0.576925424 C2.029012,2.21849809 -0.725793591,6.98859865 0.167424735,11.8269194 C0.212903926,12.0726857 0.374885698,12.2810214 0.601779694,12.385572 C0.702538252,12.432721 0.812459576,12.4570209 0.923695559,12.4567286 C1.05862725,12.4567286 1.19119256,12.4212965 1.30807759,12.3538417 L7.30445476,8.88749768 Z M6.15130867,2.4634592 L6.15130867,7.77692123 L1.55024552,10.4336483 C1.5387084,10.2884622 1.5387084,10.1423035 1.5387084,9.9999955 C1.5414891,6.82089844 3.3225237,3.91086316 6.15130867,2.4634592 Z M9.99513692,0 C9.5705423,0 9.22637287,0.344385373 9.22637287,0.769228583 L9.22637287,9.59807304 L1.65306769,14.0124993 C1.28322657,14.2270136 1.15932207,14.7022187 1.37726842,15.0701866 C5.27794566,21.7053591 14.8943246,21.6271894 18.6867458,14.9294731 C22.4605785,8.26457927 17.6507875,0.00286210498 9.99513692,0 Z M9.99513692,18.4615372 C7.27291891,18.4542311 4.7188257,17.1429884 3.12525333,14.9346073 L10.3824032,10.7038421 C10.6200137,10.5665727 10.7665064,10.3129934 10.7667853,10.0384545 L10.7667853,1.57307349 C17.2499204,2.16162273 20.6651384,9.55190466 16.9141808,14.8755794 C15.3284007,17.1262542 12.7472495,18.4639973 9.99513692,18.4615372 Z" id="Shape"></path>
        </g>
    </g>
</svg>