<?xml version="1.0" encoding="UTF-8"?>
<svg width="22px" height="22px" viewBox="0 0 22 22" version="1.1" xmlns="http://www.w3.org/2000/svg" xmlns:xlink="http://www.w3.org/1999/xlink">
    <title>HOME</title>
    <g id="HOME" stroke="none" stroke-width="1" fill="none" fill-rule="evenodd">
        <g id="House--Streamline-Phosphor" transform="translate(-0.000000, 1.000000)" fill="#000000" fill-rule="nonzero">
            <path d="M21.4625876,8.8915585 L12.295937,0.491666483 C11.5800755,-0.163888828 10.4199245,-0.163888828 9.70406297,0.491666483 L0.537412415,8.8915585 C0.191868182,9.20584704 -0.00171258899,9.63399998 1.14174211e-05,10.0801412 L1.14174211e-05,20.1600083 C1.14174211e-05,20.6239202 0.410422991,21 0.916681649,21 L8.25000575,21 C8.7562644,21 9.16667354,20.6239202 9.16667354,20.1600083 L9.16667354,14.280083 L12.8333265,14.280083 L12.8333265,20.1600083 C12.8333265,20.6239202 13.2437356,21 13.7499943,21 L21.0833184,21 C21.589577,21 21.9999886,20.6239202 21.9999886,20.1600083 L21.9999886,10.0801412 C22.0017126,9.63399998 21.8081318,9.20584704 21.4625876,8.8915585 Z M20.1666506,19.3200249 L14.666662,19.3200249 L14.666662,13.4400997 C14.666662,12.9761962 14.2562438,12.6001247 13.7499943,12.600108 L8.25000575,12.600108 C7.74372882,12.6000912 7.33333795,12.9761711 7.33333795,13.4400997 L7.33333795,19.3200249 L1.83334945,19.3200249 L1.83334945,10.0801412 L11,1.68024919 L20.1666506,10.0801412 L20.1666506,19.3200249 Z" id="Shape"></path>
        </g>
    </g>
</svg>