<?xml version="1.0" encoding="UTF-8"?>
<svg width="22px" height="22px" viewBox="0 0 22 22" version="1.1" xmlns="http://www.w3.org/2000/svg" xmlns:xlink="http://www.w3.org/1999/xlink">
    <title>HOME_filled</title>
    <g id="HOME_filled" stroke="none" stroke-width="1" fill="none" fill-rule="evenodd">
        <g id="House--Streamline-Phosphor" transform="translate(-0.000000, 0.000000)" fill="#000000" fill-rule="nonzero">
            <path d="M21.4625876,9.31496605 L12.295937,0.515079173 C11.5800755,-0.171693058 10.4199245,-0.171693058 9.70406297,0.515079173 L0.537412415,9.31496605 C0.191868182,9.64422071 -0.00171258899,10.0927619 1.14174211e-05,10.5601479 L1.14174211e-05,21.1200087 C1.14174211e-05,21.6060116 0.410422991,22 0.916681649,22 L8.25000575,22 C8.7562644,22 9.16667354,21.6060116 9.16667354,21.1200087 L9.16667354,14.960087 L12.8333265,14.960087 L12.8333265,21.1200087 C12.8333265,21.6060116 13.2437356,22 13.7499943,22 L21.0833184,22 C21.589577,22 21.9999886,21.6060116 21.9999886,21.1200087 L21.9999886,10.5601479 C22.0017126,10.0927619 21.8081318,9.64422071 21.4625876,9.31496605 Z" id="Shape"></path>
        </g>
    </g>
</svg>