<?xml version="1.0" encoding="UTF-8"?>
<svg width="22px" height="22px" viewBox="0 0 22 22" version="1.1" xmlns="http://www.w3.org/2000/svg" xmlns:xlink="http://www.w3.org/1999/xlink">
    <title>LIBRARY</title>
    <g id="LIBRARY" stroke="none" stroke-width="1" fill="none" fill-rule="evenodd">
        <g id="Cards-Three--Streamline-Phosphor" transform="translate(1.000000, 1.000000)" fill="#000000" fill-rule="nonzero">
            <path d="M18.3333307,7.00000083 L1.66666932,7.00000083 C0.746165497,7.00000083 0,7.78346601 0,8.74999476 L0,19.2499918 C0,20.2165206 0.746165497,21.0000008 1.66666932,21.0000008 L18.3333307,21.0000008 C19.2538345,21.0000008 20,20.2165206 20,19.2499918 L20,8.74999476 C20,7.78346601 19.2538345,7.00000083 18.3333307,7.00000083 Z M18.3333307,19.2499948 L1.66666932,19.2499948 L1.66666932,8.74999476 L18.3333307,8.74999476 L18.3333307,19.2499948 Z M1.66666932,4.37500156 C1.66666932,3.89173719 2.03974809,3.49999623 2.5,3.49999623 L17.5,3.49999623 C18.1415019,3.50002971 18.5424426,4.22921198 18.2216677,4.81252934 C18.0727997,5.08324076 17.7977041,5.24999853 17.5,5.24999853 L2.5,5.24999853 C2.03974809,5.25002364 1.66666932,4.85826594 1.66666932,4.37500156 Z M3.33333068,0.874996964 C3.33333068,0.391732591 3.70641741,0 4.16666932,0 L15.8333307,0 C16.4748326,3.34821335e-05 16.8757813,0.729215755 16.5550064,1.31253311 C16.4061384,1.58324453 16.1310427,1.7500023 15.8333307,1.7500023 L4.16666932,1.7500023 C3.70643335,1.7500023 3.33333068,1.35825297 3.33333068,0.875005335 L3.33333068,0.874996964 Z" id="Shape"></path>
        </g>
    </g>
</svg>