<?xml version="1.0" encoding="UTF-8"?>
<svg width="22px" height="22px" viewBox="0 0 22 22" version="1.1" xmlns="http://www.w3.org/2000/svg" xmlns:xlink="http://www.w3.org/1999/xlink">
    <title>RADIO_filled</title>
    <g id="RADIO_filled" stroke="none" stroke-width="1" fill="none" fill-rule="evenodd">
        <g id="Broadcast--Streamline-Phosphor-Copy" transform="translate(-0.000000, 3.000000)" fill="#000000" fill-rule="nonzero">
            <path d="M11.0029649,4.30209487 C8.9784714,4.30209487 7.33729518,5.95770339 7.33729518,8 C7.33729518,10.0422966 8.9784714,11.6979051 11.0029649,11.6979051 C13.0274583,11.6979051 14.6686346,10.0422966 14.6686346,8 C14.6686346,5.95770339 13.0274583,4.30209487 11.0029649,4.30209487 L11.0029649,4.30209487 Z M17.7578777,10.8788191 C17.4428994,11.6300281 17.006909,12.3235013 16.4675619,12.9311565 C16.1958333,13.2277611 15.7384818,13.2496136 15.4401801,12.9802454 C15.1418784,12.7108772 15.1129484,12.2499095 15.3751924,11.9447403 C17.3684402,9.69962853 17.3684402,6.30129595 15.3751924,4.05618418 C15.1955341,3.86007864 15.1346168,3.58150399 15.2158143,3.3273482 C15.2970119,3.0731924 15.5077137,2.88292738 15.7670745,2.82955704 C16.0264352,2.7761867 16.2941745,2.86799979 16.4675619,3.06976798 C18.3570787,5.20270329 18.8594255,8.2429297 17.7578777,10.8788191 L17.7578777,10.8788191 Z M5.59610208,5.69712958 C4.713125,7.80569789 5.11500317,10.2388914 6.6279881,11.9447403 C6.89023213,12.2499095 6.86130204,12.7108772 6.56300034,12.9802454 C6.26469864,13.2496136 5.80734714,13.2277611 5.53561853,12.9311565 C3.04333442,10.1247813 3.04333442,5.8761432 5.53561853,3.06976798 C5.80563535,2.76469993 6.26967793,2.73821019 6.57208664,3.0106015 C6.87449535,3.28299281 6.90075417,3.75111612 6.63073735,4.05618418 C6.19818816,4.54161455 5.84855363,5.0961396 5.59610208,5.69712958 Z M21.999987,8 C22.0044192,10.9044585 20.8756121,13.6940073 18.8575786,15.7656008 C18.6758328,15.961625 18.403076,16.0429312 18.1449045,15.9780422 C17.886733,15.9131531 17.6836744,15.7122551 17.6143417,15.4531246 C17.5450091,15.1939941 17.6202862,14.9173094 17.8110299,14.7301873 C21.4461036,10.9940993 21.4461036,5.0095986 17.8110299,1.27351057 C17.6270286,1.08491865 17.5567399,0.811625782 17.6266409,0.556578741 C17.696542,0.301531699 17.896013,0.103478196 18.1499153,0.0370230696 C18.4038176,-0.0294320568 18.6735773,0.045807308 18.8575786,0.234399223 C20.8756121,2.30599267 22.0044192,5.09554153 21.999987,8 Z M4.19489985,14.7283384 C4.37857373,14.9169303 4.44855988,15.190047 4.37849517,15.444808 C4.30843046,15.699569 4.1089594,15.8972701 3.85522081,15.9634392 C3.60148222,16.0296083 3.33202502,15.9541927 3.14835115,15.7656008 C-1.04945038,11.4545077 -1.04945038,4.54549234 3.14835115,0.234399223 C3.33009696,0.0383750233 3.60285378,-0.0429311921 3.86102527,0.0219578435 C4.11919676,0.0868468791 4.32225536,0.287744932 4.391588,0.546875396 C4.46092064,0.80600586 4.38564355,1.08269062 4.19489985,1.26981266 C0.559826105,5.0059007 0.559826105,10.9904014 4.19489985,14.7264894 L4.19489985,14.7283384 Z" id="Shape"></path>
        </g>
    </g>
</svg>