<?xml version="1.0" encoding="UTF-8"?>
<svg width="22px" height="22px" viewBox="0 0 22 22" version="1.1" xmlns="http://www.w3.org/2000/svg" xmlns:xlink="http://www.w3.org/1999/xlink">
    <title>RADIO</title>
    <g id="RADIO" stroke="none" stroke-width="1" fill="none" fill-rule="evenodd">
        <g id="Broadcast--Streamline-Phosphor" transform="translate(1.000000, 3.000000)" fill="#000000" fill-rule="nonzero">
            <path d="M10.0026953,4.03321394 C8.16224673,4.03321394 6.67026835,5.58534693 6.67026835,7.5 C6.67026835,9.41465307 8.16224673,10.9667861 10.0026953,10.9667861 C11.8431439,10.9667861 13.3351223,9.41465307 13.3351223,7.5 C13.3351223,5.58534693 11.8431439,4.03321394 10.0026953,4.03321394 L10.0026953,4.03321394 Z M10.0026953,9.58007164 C8.89842617,9.58007164 8.00323914,8.64879184 8.00323914,7.5 C8.00323914,6.35120816 8.89842617,5.41992836 10.0026953,5.41992836 C11.1069645,5.41992836 12.0021515,6.35120816 12.0021515,7.5 C12.0021515,8.64879184 11.1069645,9.58007164 10.0026953,9.58007164 Z M16.1435252,10.1988929 C15.8571813,10.9031513 15.4608263,11.5532825 14.9705109,12.1229592 C14.7234849,12.401026 14.3077108,12.4215128 14.0365274,12.1689801 C13.765344,11.9164474 13.739044,11.4842902 13.9774476,11.198194 C15.7894911,9.09340174 15.7894911,5.90746495 13.9774476,3.80267267 C13.8141219,3.61882373 13.7587426,3.35765999 13.8325585,3.11938893 C13.9063744,2.88111788 14.0979216,2.70274442 14.3337041,2.65270972 C14.5694865,2.60267503 14.8128859,2.6887498 14.9705109,2.87790748 C16.6882533,4.87753434 17.1449323,7.72774659 16.1435252,10.1988929 L16.1435252,10.1988929 Z M5.08736553,5.34105898 C4.28465909,7.31784177 4.65000289,9.59896069 6.02544373,11.198194 C6.26384739,11.4842902 6.23754731,11.9164474 5.96636394,12.1689801 C5.69518058,12.4215128 5.27940649,12.401026 5.03238048,12.1229592 C2.76666766,9.49198245 2.76666766,5.50888425 5.03238048,2.87790748 C5.27785032,2.59190618 5.6997072,2.56707205 5.97462421,2.82243891 C6.24954123,3.07780576 6.27341288,3.51667136 6.02794305,3.80267267 C5.63471651,4.25776364 5.31686694,4.77763087 5.08736553,5.34105898 Z M19.9999882,7.5 C20.0040175,10.2229298 18.9778292,12.8381319 17.1432533,14.7802507 C16.9780298,14.9640234 16.7300691,15.040248 16.4953677,14.9794145 C16.2606663,14.9185811 16.0760676,14.7302391 16.0130379,14.4873043 C15.9500083,14.2443695 16.018442,13.9849775 16.1918454,13.8095506 C19.4964578,10.3069681 19.4964578,4.69649869 16.1918454,1.19391616 C16.0245715,1.01711123 15.9606727,0.760899171 16.024219,0.521792569 C16.0877654,0.282685968 16.2691027,0.0970108087 16.499923,0.0347091277 C16.7307433,-0.0275925532 16.9759794,0.0429443512 17.1432533,0.219749272 C18.9778292,2.16186813 20.0040175,4.77707019 19.9999882,7.5 Z M3.81354532,13.8078172 C3.98052158,13.9846222 4.04414534,14.240669 3.98045015,14.4795075 C3.91675496,14.7183459 3.73541764,14.9036907 3.50474619,14.9657242 C3.27407474,15.0277578 3.02911366,14.9570557 2.86213741,14.7802507 C-0.954045804,10.7386009 -0.954045804,4.26139907 2.86213741,0.219749272 C3.02736087,0.0359765843 3.27532162,-0.0402479926 3.51002297,0.0205854783 C3.74472433,0.0814189491 3.92932305,0.269760874 3.99235273,0.512695684 C4.0553824,0.755630494 3.98694868,1.01502246 3.81354532,1.19044937 C0.508932822,4.6930319 0.508932822,10.3035013 3.81354532,13.8060838 L3.81354532,13.8078172 Z" id="Shape"></path>
        </g>
    </g>
</svg>