<?xml version="1.0" encoding="UTF-8"?>
<svg width="22px" height="22px" viewBox="0 0 22 22" version="1.1" xmlns="http://www.w3.org/2000/svg" xmlns:xlink="http://www.w3.org/1999/xlink">
    <title>RESOURCES</title>
    <g id="RESOURCES" stroke="none" stroke-width="1" fill="none" fill-rule="evenodd">
        <g id="Books--Streamline-Phosphor" transform="translate(0.000000, 1.000000)" fill="#000000" fill-rule="nonzero">
            <path d="M21.9601254,17.0549274 L18.1570641,1.2745195 C17.9501374,0.406357795 16.9736798,-0.149364866 15.9799585,0.0354854023 L10.6162512,1.04151155 C9.62878681,1.2302122 8.99990466,2.07802985 9.2068679,2.94155994 L13.0099292,18.7219678 C13.1846212,19.4640554 13.9316911,19.9975048 14.7997346,20 C14.9299247,20 15.0597312,19.9877792 15.1870348,19.9639993 L20.550733,18.9579732 C21.5394488,18.7688261 22.1685501,17.9193742 21.9601254,17.0549274 Z M11.0001169,2.6145564 L11.0001169,2.60555623 L16.3626733,1.60552489 L16.7442372,3.19256824 L11.3816808,4.19959086 L11.0001169,2.6145564 Z M11.7586594,5.76163462 L17.1235085,4.75660495 L17.5062233,6.3466457 L12.1459596,7.35267184 L11.7586594,5.76163462 Z M12.5195036,8.91871745 L17.8843527,7.91269131 L19.4083248,14.2368536 L14.0434757,15.2428798 L12.5195036,8.91871745 Z M20.1668764,17.3939365 L14.80432,18.3939598 L14.4227561,16.8069165 L19.7853125,15.7998939 L20.1668764,17.3849363 L20.1668764,17.3939365 Z M7.33341127,0.799503418 L1.83334825,0.799503418 C0.820819585,0.799503418 0,1.51586597 0,2.39954879 L0,18.3999626 C0,19.2836374 0.820819585,20 1.83334825,20 L7.33341127,20 C8.34593994,20 9.16675952,19.2836374 9.16675952,18.3999626 L9.16675952,2.39954879 C9.16675952,1.51586597 8.34593994,0.799503418 7.33341127,0.799503418 Z M1.83334825,2.39954879 L7.33341127,2.39954879 L7.33341127,3.99958618 L1.83334825,3.99958618 L1.83334825,2.39954879 Z M1.83334825,5.59963155 L7.33341127,5.59963155 L7.33341127,15.1998798 L1.83334825,15.1998798 L1.83334825,5.59963155 Z M7.33341127,18.3999626 L1.83334825,18.3999626 L1.83334825,16.7999172 L7.33341127,16.7999172 L7.33341127,18.3999626 Z" id="Shape"></path>
        </g>
    </g>
</svg>