<?xml version="1.0" encoding="UTF-8"?>
<svg width="22px" height="22px" viewBox="0 0 22 22" version="1.1" xmlns="http://www.w3.org/2000/svg" xmlns:xlink="http://www.w3.org/1999/xlink">
    <title>SEARCH_filled</title>
    <g id="SEARCH_filled" stroke="none" stroke-width="1" fill="none" fill-rule="evenodd">
        <path d="M0.579635807,12.5631951 C-1.86877548,5.82049483 3.80179658,-1.08037393 10.7866534,0.141620755 C17.7715188,1.36362423 20.6676525,8.72858627 16.7564323,14.890065 C16.7564323,14.890065 18.3059485,16.5186545 20.1125747,18.3648843 L20.4769452,18.7366141 C20.5992894,18.8612126 20.7223934,18.9863603 20.8458742,19.1116393 L21.2170644,19.4874515 C21.4028418,19.6751363 21.5886054,19.8621756 21.773063,20.0471584 C21.9323953,20.3021964 22.3078378,20.9210127 21.4985395,21.6680039 C20.6892412,22.4149951 19.7380234,21.6680039 19.7380234,21.6680039 C19.7380234,21.6680039 14.5153871,17.0161368 14.5153871,17.0161368 C9.23222207,20.1594951 2.77747709,18.6158709 0.579635807,12.5631951 Z M12.4654977,3.58750405 C8.13674697,1.08751075 2.72581412,4.21249863 2.72581412,9.21247024 C2.72978864,12.7979942 5.63453446,15.7036418 9.21893653,15.707625 C10.358618,15.707625 11.4785018,15.4074593 12.4654977,14.8374364 C16.794241,12.3374506 16.794241,6.08748985 12.4654977,3.58750405 Z" id="Shape" fill="#000000" fill-rule="nonzero"></path>
    </g>
</svg>