<?xml version="1.0" encoding="UTF-8"?>
<svg width="22px" height="22px" viewBox="0 0 22 22" version="1.1" xmlns="http://www.w3.org/2000/svg" xmlns:xlink="http://www.w3.org/1999/xlink">
    <title>SEARCH</title>
    <g id="SEARCH" stroke="none" stroke-width="1" fill="none" fill-rule="evenodd">
        <g id="Magnifying-Glass--Streamline-Phosphor" fill="#000000" fill-rule="nonzero">
            <path d="M21.7524225,20.556168 L16.4654227,15.2685741 C21.0491596,9.76378554 17.9567484,1.35969487 10.8990809,0.141212667 C3.84142207,-1.07726077 -1.88825341,5.80372276 0.585677254,12.5269935 C2.80642627,18.5622282 10.3312735,20.5791279 15.2711772,16.4631934 L20.5571165,21.751848 C21.0171887,22.2120641 21.8027801,22.001497 21.9711793,21.3728377 C22.0493362,21.0810647 21.9659472,20.7697596 21.7524225,20.556168 L21.7524225,20.556168 Z M1.72581412,9.32398702 C1.72581412,3.46964422 8.06134124,-0.189326602 13.1297682,2.73785356 C18.1981864,5.66502496 18.1981864,12.9829491 13.1297682,15.9101205 C11.9741191,16.5775461 10.662875,16.9290027 9.32845017,16.9290027 C5.13156265,16.9243388 1.73046778,13.5221882 1.72581412,9.32398702 Z" id="Shape"></path>
        </g>
    </g>
</svg>