<?xml version="1.0" encoding="UTF-8"?>
<svg width="22px" height="22px" viewBox="0 0 22 22" version="1.1" xmlns="http://www.w3.org/2000/svg" xmlns:xlink="http://www.w3.org/1999/xlink">
    <title>SERVICES</title>
    <g id="SERVICES" stroke="none" stroke-width="1" fill="none" fill-rule="evenodd">
        <g id="Toolbox--Streamline-Phosphor" transform="translate(0.000000, 1.000000)" fill="#000000" fill-rule="nonzero">
            <path d="M20.4285714,3.63636364 L15.7142857,3.63636364 L15.7142857,2.72727273 C15.7142857,1.22109375 14.6589118,0 13.3571429,0 L8.64285714,0 C7.34100048,0 6.28571429,1.22099229 6.28571429,2.72727273 L6.28571429,3.63636364 L1.57142857,3.63636364 C0.703556282,3.63636364 0,4.4503957 0,5.45454545 L0,18.1818182 C0,19.1860085 0.703521205,20 1.57142857,20 L20.4285714,20 C21.2964788,20 22,19.1860085 22,18.1818182 L22,5.45454545 C22,4.45035511 21.2964788,3.63632305 20.4285714,3.63636364 Z M7.85714286,2.72727273 C7.85714286,2.22521307 8.20893415,1.81820211 8.64285714,1.81818182 L13.3571429,1.81818182 C13.7910658,1.81820211 14.1428571,2.22521307 14.1428571,2.72727273 L14.1428571,3.63636364 L7.85714286,3.63636364 L7.85714286,2.72727273 Z M20.4285714,5.45454545 L20.4285714,9.09090909 L17.2857143,9.09090909 L17.2857143,8.18181818 C17.2857143,7.48200081 16.6309495,7.04461242 16.1071429,7.3945211 C15.864045,7.55691964 15.7142857,7.85703125 15.7142857,8.18181818 L15.7142857,9.09090909 L6.28571429,9.09090909 L6.28571429,8.18181818 C6.28571429,7.48200081 5.63094946,7.04461242 5.10714286,7.3945211 C4.86404496,7.55691964 4.71428571,7.85703125 4.71428571,8.18181818 L4.71428571,9.09090909 L1.57142857,9.09090909 L1.57142857,5.45454545 L20.4285714,5.45454545 Z M20.4285714,18.1818182 L1.57142857,18.1818182 L1.57142857,10.9090909 L4.71428571,10.9090909 L4.71428571,11.8181818 C4.71428571,12.5179992 5.36905054,12.9553876 5.89285714,12.6054789 C6.13595504,12.4430804 6.28571429,12.1429687 6.28571429,11.8181818 L6.28571429,10.9090909 L15.7142857,10.9090909 L15.7142857,11.8181818 C15.7142857,12.5179992 16.3690505,12.9553876 16.8928571,12.6054789 C17.135955,12.4430804 17.2857143,12.1429687 17.2857143,11.8181818 L17.2857143,10.9090909 L20.4285714,10.9090909 L20.4285714,18.1818182 L20.4285714,18.1818182 Z" id="Shape"></path>
        </g>
    </g>
</svg>