<?xml version="1.0" encoding="UTF-8"?>
<svg width="22px" height="22px" viewBox="0 0 22 22" version="1.1" xmlns="http://www.w3.org/2000/svg" xmlns:xlink="http://www.w3.org/1999/xlink">
    <title>SETTINGS</title>
    <g id="SETTINGS" stroke="none" stroke-width="1" fill="none" fill-rule="evenodd">
        <g id="Gear-Six--Streamline-Phosphor" transform="translate(-0.000000, 1.000000)" fill="#000000" fill-rule="nonzero">
            <path d="M11.0009298,5.38548513 C7.37213181,5.38548513 5.10413635,9.2308462 6.91853096,12.3071316 C8.73293434,15.3834256 13.2689253,15.3834256 15.0833286,12.3071316 C15.497065,11.605655 15.7148727,10.8099175 15.7148727,9.99992185 C15.7121718,7.4525401 13.6032484,5.38813759 11.0009298,5.38548513 L11.0009298,5.38548513 Z M11.0009298,13.0762073 C8.58173698,13.0762073 7.06973709,10.5126361 8.2793335,8.46177914 C9.48892991,6.41092219 12.5129297,6.41092219 13.7225261,8.46177914 C13.9983504,8.92942733 14.1435584,9.45991905 14.1435584,9.99992185 C14.1435584,11.6989031 12.7365601,13.0762073 11.0009298,13.0762073 Z M21.7978348,8.00129001 C21.7535507,7.78215744 21.6141215,7.59269121 21.4158076,7.4821721 L18.4862864,5.84788849 L18.4745007,2.61587199 C18.4737817,2.39059327 18.3721913,2.17695447 18.1965719,2.03136969 C17.1339023,1.15145732 15.9101525,0.477140545 14.590407,0.044283338 C14.3802372,-0.0253501381 14.1497933,-0.00474851794 13.9559867,0.101006465 L11.0009298,1.71797613 L8.04292649,0.0981222387 C7.84900593,-0.00823362535 7.61813224,-0.0291871898 7.40753279,0.0404377022 C6.08875193,0.476462409 4.8664052,1.15334581 3.80528772,2.03521532 C3.62993141,2.18058551 3.52836733,2.39381228 3.52735888,2.61875622 L3.51262674,5.85365695 L0.583105566,7.48794055 C0.384791666,7.59845966 0.245362481,7.78792589 0.201087138,8.00705846 C-0.067029046,9.32590551 -0.067029046,10.6835437 0.201087138,12.0023907 C0.245362481,12.2215319 0.384791666,12.4109981 0.583105566,12.5215172 L3.51262674,14.1557923 L3.52441245,17.3878173 C3.52514029,17.6130875 3.6267219,17.8267263 3.80234129,17.9723111 C4.86501091,18.8522234 6.0887607,19.5265402 7.40850616,19.9593974 C7.61867593,20.0290395 7.84912869,20.0084293 8.04292649,19.9026829 L11.0009298,18.281859 L13.9589331,19.9017215 C14.0759922,19.9655693 14.2079414,19.9986864 14.3419425,19.9978538 C14.4277484,19.997828 14.5129844,19.984188 14.5943356,19.9574746 C15.9129586,19.5220336 17.1352966,18.8458026 18.1965719,17.9646198 C18.371937,17.8192582 18.4734923,17.6060228 18.4745007,17.3810875 L18.4892329,14.1461782 L21.418754,12.5119031 C21.6170679,12.401384 21.7564971,12.2119178 21.8007812,11.9927767 C22.0673979,10.6749854 22.0663894,9.31870353 21.7978348,8.00129001 Z M20.324726,11.3573283 L17.518946,12.9195062 C17.3960116,12.9879379 17.2942195,13.0875725 17.2243208,13.2079117 C17.1673653,13.304044 17.1074546,13.4059448 17.0465705,13.5020771 C16.9686305,13.623309 16.9271086,13.7635632 16.9267579,13.9068045 L16.9120257,17.0071252 C16.1578629,17.5868633 15.3176661,18.0504513 14.4205051,18.3818369 L11.5901716,16.8379258 C11.472674,16.7742839 11.3404706,16.7411926 11.2061801,16.7417935 L10.8300457,16.7417935 C10.6895029,16.7383599 10.5505472,16.771537 10.4274023,16.8379258 L7.5951045,18.3856826 C6.6960318,18.0568378 5.85351999,17.5955246 5.09670889,17.0177007 L5.08591409,13.9221871 C5.08542302,13.7786624 5.04392749,13.6381336 4.96610145,13.5164982 C4.90520861,13.4203659 4.84530667,13.3242336 4.78932454,13.2223328 C4.71991687,13.1001309 4.61813356,12.9985134 4.49469927,12.9281589 L1.68597288,11.3621353 C1.54062453,10.4621449 1.54062453,9.54538144 1.68597288,8.64539108 L4.48684213,7.08032891 C4.60977658,7.01190578 4.71156865,6.91226261 4.7814674,6.79193198 C4.8384229,6.69579109 4.89833361,6.59389033 4.95921769,6.49775802 C5.03716649,6.37652607 5.07867956,6.23627195 5.07903032,6.09303061 L5.09376246,2.99270996 C5.84792528,2.41297178 6.68812204,1.94939241 7.58528308,1.61799818 L10.411688,3.16190935 C10.5346926,3.2286586 10.6737535,3.26185296 10.8143402,3.25804166 L11.1718139,3.25804166 C11.3123567,3.26148384 11.4513124,3.22830665 11.5744573,3.16190935 L14.4067551,1.61415255 C15.3058366,1.94300591 16.1483396,2.40431052 16.9051507,2.98213446 L16.9159543,6.07765665 C16.9164366,6.22117268 16.9579409,6.36170148 17.0357669,6.48333688 C17.096651,6.57946919 17.1565617,6.67561009 17.2125351,6.77751085 C17.2819427,6.89970421 17.383726,7.00133029 17.5071603,7.07167623 L20.3158867,8.63769981 C20.4631731,9.53838547 20.4648304,10.4561447 20.3207974,11.3573283 L20.324726,11.3573283 Z" id="Shape"></path>
        </g>
    </g>
</svg>