<?xml version="1.0" encoding="UTF-8"?>
<svg width="22px" height="22px" viewBox="0 0 22 22" version="1.1" xmlns="http://www.w3.org/2000/svg" xmlns:xlink="http://www.w3.org/1999/xlink">
    <title>STORE</title>
    <g id="STORE" stroke="none" stroke-width="1" fill="none" fill-rule="evenodd">
        <g id="Storefront--Streamline-Phosphor" transform="translate(0.000000, 1.000000)" fill="#000000" fill-rule="nonzero">
            <path d="M21.9999873,6.66666667 C22.000421,6.58919067 21.9897402,6.51203421 21.9682471,6.43750318 L20.45046,1.20833538 C20.2409392,0.495739295 19.5801765,0.00396404893 18.8269084,0 L3.17307486,0 C2.41980669,0.00396404893 1.75903528,0.495739295 1.54952325,1.20833538 L0.0327884003,6.43750318 C0.0109357309,6.5119824 0,6.58913885 0,6.66666667 L0,8.33333765 C0,9.64482467 0.626975809,10.879777 1.69231098,11.666671 L1.69231098,19.1666688 C1.69231098,19.6269044 2.07114612,20 2.53846177,20 L19.4615214,20 C19.9288371,20 20.3076722,19.6269044 20.3076722,19.1666688 L20.3076722,11.666671 C21.3729986,10.879777 21.9999873,9.64482467 21.9999873,8.33333765 L21.9999873,6.66666667 Z M3.17307486,1.66667098 L18.8269084,1.66667098 L20.0347857,5.83333549 L1.96836316,5.83333549 L3.17307486,1.66667098 Z M8.46153485,7.49999784 L13.5384484,7.49999784 L13.5384484,8.33332902 C13.5384484,10.2578359 11.4230626,11.4606441 9.73076104,10.4983993 C8.945354,10.0518176 8.46153485,9.22650092 8.46153485,8.33332902 L8.46153485,7.49999784 Z M6.7692245,7.49999784 L6.7692245,8.33332902 C6.76855804,10.2112346 4.74438001,11.4180068 3.0546127,10.5479197 C2.99575431,10.5027951 2.93101183,10.4656592 2.86211278,10.4374963 C2.13363493,9.97820205 1.69276697,9.18519363 1.69231098,8.33332902 L1.69231098,7.49999784 L6.7692245,7.49999784 Z M18.6153619,18.3333312 L3.38461256,18.3333312 L3.38461256,12.4166708 C3.66316394,12.4719688 3.9466085,12.4998813 4.23076335,12.5000022 C5.56249589,12.5000626 6.81634103,11.8825778 7.61537529,10.8333312 C9.30768564,13.0555563 12.6922976,13.0555563 14.3845992,10.8333312 C15.1836422,11.8825778 16.4374786,12.5000626 17.7692111,12.5000022 C18.0533659,12.4998813 18.3368105,12.4719688 18.6153619,12.4166708 L18.6153619,18.3333312 Z M19.1368094,10.4374963 C19.0688135,10.465711 19.0048252,10.5024756 18.9464228,10.5468747 C17.2568046,11.4178859 15.2318022,10.2115282 15.2307587,8.33332902 L15.2307587,7.49999784 L20.3076722,7.49999784 L20.3076722,8.33332902 C20.3069795,9.1854009 19.8656906,9.9784525 19.1368094,10.4374963 L19.1368094,10.4374963 Z" id="Shape"></path>
        </g>
    </g>
</svg>