<?xml version="1.0" encoding="UTF-8"?>
<svg width="22px" height="22px" viewBox="0 0 22 22" version="1.1" xmlns="http://www.w3.org/2000/svg" xmlns:xlink="http://www.w3.org/1999/xlink">
    <title>44-WHITE</title>
    <g id="44-WHITE" stroke="none" stroke-width="1" fill="none" fill-rule="evenodd">
        <g id="Group-Copy" transform="translate(0.000000, 3.000000)" fill="#FFFFFF" fill-rule="nonzero">
            <path d="M17.3159064,15.2751092 C17.9810109,14.8549686 18.750348,14.1397294 19.623918,13.1293915 C19.5147218,12.4291573 19.4452333,11.8289565 19.4154525,11.3287892 C19.911799,11.0086821 20.4925245,10.3584647 21.157629,9.37813677 C21.8128064,8.42781891 22.0857971,7.87763489 21.9766008,7.7275847 C21.9666739,7.71758135 21.9567469,7.71257968 21.94682,7.71257968 C21.9666739,7.71257968 21.6986467,7.91764827 21.1427386,8.32778545 C20.5868304,8.73792263 20.0061049,8.97800293 19.4005621,9.04802636 C19.3807082,8.93798955 19.3707813,8.79294104 19.3707813,8.61288081 C19.3707813,8.12271686 19.4725323,7.03235216 19.6760344,5.3417867 C19.8795365,3.65122125 19.9812876,2.52584484 19.9812876,1.96565747 C19.9812876,1.4054701 19.8720913,0.930311168 19.6536988,0.540180678 C19.4452333,0.180060226 19.2119504,0 18.9538501,0 C18.3185265,0 16.9982446,1.61053869 14.9930045,4.83161606 C12.3623676,9.04302468 10.7591681,11.5038478 10.1834061,12.2140853 C10.640045,12.1640686 11.2257339,12.1390602 11.940473,12.1390602 C14.0648364,12.1390602 15.6630723,12.2440954 16.7351809,12.4541656 C16.9635004,13.564537 17.1570755,14.5048515 17.3159064,15.2751092 Z M16.8691945,9.18307152 C15.5489126,9.14305814 14.5959272,8.98800628 14.0102382,8.71791594 C15.8367936,5.46682853 17.0429158,3.84128482 17.6286048,3.84128482 C17.6881664,4.19140193 17.6087509,5.08670138 17.3903584,6.52718319 C17.1818929,7.91764827 17.0081716,8.80294438 16.8691945,9.18307152 Z" id="4"></path>
            <path d="M7.13250032,15.2751092 C7.79760474,14.8549686 8.56694193,14.1397294 9.44051191,13.1293915 C9.33131566,12.4291573 9.26182714,11.8289565 9.23204635,11.3287892 C9.72839293,11.0086821 10.3091184,10.3584647 10.9742228,9.37813677 C11.6294003,8.42781891 11.9023909,7.87763489 11.7931947,7.7275847 C11.7832678,7.71758135 11.7733408,7.71257968 11.7634139,7.71257968 C11.7832678,7.71257968 11.5152406,7.91764827 10.9593324,8.32778545 C10.4034243,8.73792263 9.82269878,8.97800293 9.21715595,9.04802636 C9.19730209,8.93798955 9.18737516,8.79294104 9.18737516,8.61288081 C9.18737516,8.12271686 9.28912621,7.03235216 9.4926283,5.3417867 C9.6961304,3.65122125 9.79788145,2.52584484 9.79788145,1.96565747 C9.79788145,1.4054701 9.6886852,0.930311168 9.47029271,0.540180678 C9.26182714,0.180060226 9.02854425,0 8.77044403,0 C8.13512041,0 6.81483851,1.61053869 4.80959834,4.83161606 C2.17896148,9.04302468 0.57576203,11.5038478 0,12.2140853 C0.456638852,12.1640686 1.04232781,12.1390602 1.75706689,12.1390602 C3.88143024,12.1390602 5.47966622,12.2440954 6.55177483,12.4541656 C6.78009425,13.564537 6.97366942,14.5048515 7.13250032,15.2751092 Z M6.6857884,9.18307152 C5.36550651,9.14305814 4.41252108,8.98800628 3.82683212,8.71791594 C5.65338752,5.46682853 6.85950971,3.84128482 7.44519867,3.84128482 C7.50476026,4.19140193 7.42534481,5.08670138 7.20695231,6.52718319 C6.99848675,7.91764827 6.82476545,8.80294438 6.6857884,9.18307152 Z" id="4-copy"></path>
        </g>
    </g>
</svg>