<?xml version="1.0" encoding="UTF-8"?>
<svg width="22px" height="22px" viewBox="0 0 22 22" version="1.1" xmlns="http://www.w3.org/2000/svg" xmlns:xlink="http://www.w3.org/1999/xlink">
    <title>NOTIFICATIONS</title>
    <g id="NOTIFICATIONS" stroke="none" stroke-width="1" fill="none" fill-rule="evenodd">
        <g id="Bell--Streamline-Phosphor" transform="translate(2.000000, 1.000000)" fill="#000000" fill-rule="nonzero">
            <path d="M17.7935502,14.6109216 C17.2732802,13.6923322 16.4999009,11.0931766 16.4999009,7.69842741 C16.4999009,1.78100469 10.2503738,-1.9173865 5.25074895,1.04132486 C2.93041663,2.41446518 1.50102645,4.9521388 1.50102645,7.69842741 C1.50102645,11.0941405 0.726714505,13.6923322 0.20643675,14.6109216 C-0.375198731,15.6332768 0.341011843,16.9176355 1.49561734,16.9227656 C1.49742038,16.9227736 1.49922341,16.9227736 1.50103423,16.9227736 L5.32667865,16.9227736 C5.90463811,19.8215722 9.32734996,20.9920243 11.4875615,19.0295873 C12.0952401,18.4775399 12.5116721,17.7382265 12.6742487,16.9227736 L16.4999009,16.9227736 C17.6545142,16.9211804 18.3744629,15.6390203 17.795804,14.6148967 C17.7950579,14.6135663 17.7943041,14.612244 17.7935502,14.6109216 Z M9.00046367,18.4601659 C8.04727783,18.4598632 7.19772787,17.8439201 6.87999666,16.9227736 L11.1209307,16.9227736 C10.8031995,17.8439201 9.95364952,18.4598632 9.00046367,18.4601659 Z M1.50102645,15.3853892 C2.22284821,14.1131947 3.0009139,11.1652455 3.0009139,7.69842741 C3.0009139,2.96448923 8.00053871,0.00576991024 12.0002386,2.37274696 C13.856506,3.47125762 15.0000135,5.50139812 15.0000135,7.69842741 C15.0000135,11.1623617 15.7762062,14.110311 16.4999009,15.3853892 L1.50102645,15.3853892 Z" id="Shape"></path>
        </g>
    </g>
</svg>
