<?xml version="1.0" encoding="UTF-8"?>
<svg width="22px" height="22px" viewBox="0 0 22 22" version="1.1" xmlns="http://www.w3.org/2000/svg" xmlns:xlink="http://www.w3.org/1999/xlink">
    <title>SEARCH</title>
    <g id="SEARCH" stroke="none" stroke-width="1" fill="none" fill-rule="evenodd">
        <g id="Magnifying-Glass--Streamline-Phosphor" transform="translate(1.000000, 1.000000)" fill="#000000" fill-rule="nonzero">
            <path d="M19.7749295,18.6874254 L14.9685661,13.8805219 C19.1355996,8.87616867 16.3243167,1.23608625 9.90825533,0.128375152 C3.49220188,-0.979327973 -1.71659401,5.2761116 0.532433868,11.3881759 C2.55129661,16.8747529 9.39206684,18.7082981 13.8828884,14.9665395 L18.6882878,19.7744073 C19.1065352,20.1927856 19.8207092,20.0013609 19.9737994,19.4298525 C20.0448511,19.1646043 19.969043,18.8815996 19.7749295,18.6874254 L19.7749295,18.6874254 Z M1.56892193,8.47635184 C1.56892193,3.15422202 7.32849204,-0.172115093 11.9361529,2.48895778 C16.5438058,5.15002269 16.5438058,11.802681 11.9361529,14.4637459 C10.8855629,15.0704965 9.6935227,15.3900024 8.48040924,15.3900024 C4.66505696,15.3857626 1.57315253,12.2928983 1.56892193,8.47635184 Z" id="Shape"></path>
        </g>
    </g>
</svg>
