<?xml version="1.0" encoding="UTF-8"?>
<svg width="22px" height="22px" viewBox="0 0 22 22" version="1.1" xmlns="http://www.w3.org/2000/svg" xmlns:xlink="http://www.w3.org/1999/xlink">
    <title>USER</title>
    <g id="USER" stroke="none" stroke-width="1" fill="none" fill-rule="evenodd">
        <g id="User--Streamline-Phosphor" transform="translate(1.000000, 1.000000)" fill="#000000" fill-rule="nonzero">
            <path d="M19.8866135,18.7836789 C18.4236855,16.1548666 16.1692523,14.2698711 13.5382858,13.3762917 C18.1129808,10.545625 18.0240508,3.62905328 13.3782183,0.926465794 C8.7323857,-1.77612169 3.01402096,1.76221159 3.08515855,7.29546569 C3.11729162,9.79494773 4.39634121,12.0976214 6.4628226,13.3762917 C3.83185604,14.2688685 1.57743081,16.153864 0.114494884,18.7836789 C-0.194775037,19.307819 0.157819936,19.9833872 0.749161052,19.9997099 C1.03811164,20.0076889 1.30693422,19.8464424 1.4448729,19.5824045 C3.25456069,16.3315823 6.45321696,14.3906755 10.0005542,14.3906755 C13.5478914,14.3906755 16.7465477,16.3315823 18.5562435,19.5824045 C18.8385219,20.1227513 19.5777023,20.142844 19.8867729,19.6185796 C20.0378008,19.3623964 20.037737,19.0397957 19.8866135,18.7836789 Z M4.62143219,7.20211988 C4.62143219,2.89809574 9.10403253,0.208077545 12.6901112,2.36009376 C16.2761979,4.51210997 16.2761979,9.89213807 12.6901112,12.0441543 C11.8723877,12.5348785 10.9447852,12.7932159 10.0005542,12.7932159 C7.03106234,12.7899182 4.62461281,10.2886299 4.62143219,7.20211988 Z" id="Shape"></path>
        </g>
    </g>
</svg>