<svg xmlns="http://www.w3.org/2000/svg" viewBox="0 0 16 16" fill="#ffffff" id="Waveform--Streamline-Phosphor" height="16" width="16">
  <desc>
    Waveform Streamline Icon: https://streamlinehq.com
  </desc>
  <path d="M2.57230625 5.58769375v4.8246125c0 0.46425 -0.5025625 0.75440625 -0.9046125 0.52228125 -0.18659375 -0.10773125 -0.3015375 -0.30681875 -0.3015375 -0.52228125V5.58769375c0 -0.46425 0.5025625 -0.75440625 0.9046125 -0.52228125 0.18659375 0.10773125 0.3015375 0.30681875 0.3015375 0.52228125ZM4.9846125 0.16c-0.333075 -0.0000125 -0.603075 0.26999375 -0.603075 0.603075v14.47385c0 0.46424375 0.5025625 0.7544 0.90461875 0.522275 0.1865875 -0.107725 0.3015375 -0.30681875 0.3015375 -0.522275V0.763075c0 -0.33306875 -0.27000625 -0.603075 -0.60308125 -0.603075ZM8 2.57230625c-0.33306875 0 -0.603075 0.27000625 -0.603075 0.603075v9.64923125c0 0.46425 0.5025625 0.75440625 0.9046125 0.52228125 0.18659375 -0.10773125 0.3015375 -0.30681875 0.3015375 -0.52228125V3.1753875c0 -0.333075 -0.27000625 -0.60308125 -0.603075 -0.60308125Zm3.01538125 2.41230625c-0.333075 -0.0000125 -0.603075 0.27 -0.603075 0.60308125v4.8246125c0 0.46425 0.5025625 0.75440625 0.90461875 0.52228125 0.1865875 -0.10773125 0.3015375 -0.30681875 0.3015375 -0.52228125V5.58769375c0 -0.3330625 -0.27001875 -0.6030625 -0.60308125 -0.60308125Zm3.0153875 -1.20615c-0.33308125 -0.00001875 -0.603075 0.26999375 -0.603075 0.603075v7.236925c0 0.46425 0.5025625 0.7544 0.9046125 0.52228125 0.18659375 -0.10773125 0.3015375 -0.306825 0.3015375 -0.52228125V4.3815375c0 -0.33306875 -0.27000625 -0.603075 -0.603075 -0.603075Z" stroke-width="0.0625"></path>
</svg>