<svg xmlns="http://www.w3.org/2000/svg" viewBox="0 0 16 16" fill="#ffffff" id="Game-Controller--Streamline-Phosphor" height="16" width="16">
  <desc>
    Game Controller Streamline Icon: https://streamlinehq.com
  </desc>
  <path d="M11 7h-1.5a0.5 0.5 0 0 1 0 -1h1.5a0.5 0.5 0 0 1 0 1Zm-4.5 -1h-0.5v-0.5a0.5 0.5 0 0 0 -1 0v0.5h-0.5a0.5 0.5 0 0 0 0 1h0.5v0.5a0.5 0.5 0 0 0 1 0v-0.5h0.5a0.5 0.5 0 0 0 0 -1Zm8.5925 6.540625a2.25 2.25 0 0 1 -3.43375 0.300625c-0.0075 -0.0075 -0.015 -0.015 -0.021875 -0.023125L9.155 10h-2.3125l-2.479375 2.818125 -0.021875 0.023125A2.255 2.255 0 0 1 2.75 13.5a2.25 2.25 0 0 1 -2.215 -2.640625 0.0425 0.0425 0 0 1 0 -0.00875l1.023125 -5.255625A3.7425 3.7425 0 0 1 5.243125 2.5H10.75a3.755 3.755 0 0 1 3.6875 3.078125l0 0.01125 1.023125 5.260625a0.0425 0.0425 0 0 1 0 0.00875 2.23375 2.23375 0 0 1 -0.368125 1.681875ZM10.75 9a2.75 2.75 0 0 0 0 -5.5H5.243125a2.74375 2.74375 0 0 0 -2.700625 2.273125l0 0.008125 -1.02375 5.255625A1.25 1.25 0 0 0 3.625 12.14375l2.62 -2.974375a0.5 0.5 0 0 1 0.375 -0.169375Zm3.73125 2.036875 -0.54625 -2.8125A3.75 3.75 0 0 1 10.75 10h-0.2625l1.8875 2.144375a1.255625 1.255625 0 0 0 1.09125 0.336875 1.25 1.25 0 0 0 1.014375 -1.444375Z" stroke-width="0.0625"></path>
</svg>