<svg xmlns="http://www.w3.org/2000/svg" viewBox="0 0 16 16" fill="#ffffff" id="Squares-Four--Streamline-Phosphor" height="16" width="16">
  <desc>
    Squares Four Streamline Icon: https://streamlinehq.com
  </desc>
  <path d="M5.86181875 0.16H1.58545625C0.7982 0.16 0.16 0.7982 0.16 1.58545625v4.2763625c0 0.78728125 0.638175 1.4254875 1.42545625 1.42545625h4.2763625c0.78723125 -0.0000375 1.42545625 -0.638225 1.42545625 -1.42545625V1.58545625c0 -0.78725625 -0.6382 -1.42545625 -1.42545625 -1.42545625Zm0 5.70181875H1.58545625V1.58545625h4.2763625v4.2763625ZM14.41454375 0.16h-4.2763625c-0.78723125 0.0000375 -1.42545625 0.638225 -1.42545625 1.42545625v4.2763625c0 0.78723125 0.638225 1.42541875 1.42545625 1.42545625h4.2763625c0.78723125 -0.0000375 1.42545625 -0.638225 1.42545625 -1.42545625V1.58545625c0 -0.78725625 -0.6382 -1.42545625 -1.42545625 -1.42545625Zm0 5.70181875h-4.2763625V1.58545625h4.2763625v4.2763625ZM5.86181875 8.712725H1.58545625c-0.78725625 0 -1.42545625 0.6382 -1.42545625 1.42545625v4.2763625c0 0.78725625 0.6382 1.42545625 1.42545625 1.42545625h4.2763625c0.78725625 0 1.42545625 -0.6382 1.42545625 -1.42545625v-4.2763625c0 -0.78725625 -0.6382 -1.42545625 -1.42545625 -1.42545625Zm0 5.70181875H1.58545625v-4.2763625h4.2763625v4.2763625Zm8.552725 -5.70181875h-4.2763625c-0.78725625 0 -1.42545625 0.6382 -1.42545625 1.42545625v4.2763625c0 0.78725625 0.6382 1.42545625 1.42545625 1.42545625h4.2763625c0.78725625 0 1.42545625 -0.6382 1.42545625 -1.42545625v-4.2763625c0 -0.78725625 -0.6382 -1.42545625 -1.42545625 -1.42545625Zm0 5.70181875h-4.2763625v-4.2763625h4.2763625v4.2763625Z" stroke-width="0.0625"></path>
</svg>